<svg width="512" height="512" viewBox="0 0 512 512" fill="none" xmlns="http://www.w3.org/2000/svg">
<rect width="512" height="512" rx="120" fill="#FF5F57"/>
<path d="M256.242 58C358.233 58.0002 442.233 135.021 453.256 234.071C451.684 234.381 450.109 234.556 448.529 234.593C448.507 234.593 448.484 234.594 448.462 234.595L291.987 238.825C285.467 225.743 271.911 216.749 256.242 216.749C234.217 216.749 216.361 234.517 216.361 256.436C216.361 278.354 234.217 296.123 256.242 296.123C271.638 296.123 284.993 287.44 291.64 274.728L449.45 270.461V270.46C450.988 270.423 452.505 270.329 454 270.186C449.767 331.111 418.004 384.454 371.065 417.861L341.185 369.193H341.184C331.407 353.174 316.204 343.962 300.793 339.009C285.559 334.113 269.137 333.015 254.565 333.788C244.139 334.147 233.745 332.42 223.997 328.706C214.223 324.982 205.295 319.338 197.738 312.105C190.182 304.873 184.151 296.198 180.001 286.595C175.851 276.991 173.666 266.653 173.576 256.189C173.486 245.726 175.492 235.349 179.476 225.671C183.459 215.993 189.339 207.209 196.77 199.84C204.2 192.47 213.031 186.664 222.739 182.762C232.448 178.86 242.839 176.942 253.298 177.122C263.201 177.292 271.371 169.399 271.546 159.493C271.721 149.587 263.835 141.418 253.932 141.248C238.684 140.986 223.535 143.782 209.382 149.471C195.228 155.159 182.355 163.625 171.522 174.368C160.69 185.112 152.117 197.916 146.31 212.025C140.502 226.134 137.578 241.263 137.71 256.518C137.842 271.772 141.026 286.844 147.076 300.845C153.126 314.845 161.918 327.49 172.935 338.034C183.951 348.578 196.967 356.808 211.217 362.236C225.466 367.665 240.66 370.182 255.901 369.642C256.015 369.638 256.13 369.632 256.244 369.626C268.006 368.983 279.875 369.977 289.806 373.168C299.631 376.326 306.524 381.256 310.583 387.924C310.595 387.943 310.606 387.962 310.618 387.981L340.064 435.941C314.605 447.838 286.2 454.483 256.242 454.483C146.756 454.483 58 365.727 58 256.241C58.0002 146.756 146.756 58 256.242 58Z" fill="white"/>
</svg>
