<svg width="2652" height="512" viewBox="0 0 2652 512" fill="none" xmlns="http://www.w3.org/2000/svg">
<rect width="512" height="512" rx="120" fill="#FF5F57"/>
<path d="M256.242 58C358.233 58.0002 442.233 135.021 453.256 234.071C451.684 234.381 450.109 234.556 448.529 234.593C448.507 234.593 448.484 234.594 448.462 234.595L291.987 238.825C285.467 225.743 271.911 216.749 256.242 216.749C234.217 216.749 216.361 234.517 216.361 256.436C216.361 278.354 234.217 296.123 256.242 296.123C271.638 296.123 284.993 287.44 291.64 274.728L449.45 270.461V270.46C450.988 270.423 452.505 270.329 454 270.186C449.767 331.111 418.004 384.454 371.065 417.861L341.185 369.193H341.184C331.407 353.174 316.204 343.962 300.793 339.009C285.559 334.113 269.137 333.015 254.565 333.788C244.139 334.147 233.745 332.42 223.997 328.706C214.223 324.982 205.295 319.338 197.738 312.105C190.182 304.873 184.151 296.198 180.001 286.595C175.851 276.991 173.666 266.653 173.576 256.189C173.486 245.726 175.492 235.349 179.476 225.671C183.459 215.993 189.339 207.209 196.77 199.84C204.2 192.47 213.031 186.664 222.739 182.762C232.448 178.86 242.839 176.942 253.298 177.122C263.201 177.292 271.371 169.399 271.546 159.493C271.721 149.587 263.835 141.418 253.932 141.248C238.684 140.986 223.535 143.782 209.382 149.471C195.228 155.159 182.355 163.625 171.522 174.368C160.69 185.112 152.117 197.916 146.31 212.025C140.502 226.134 137.578 241.263 137.71 256.518C137.842 271.772 141.026 286.844 147.076 300.845C153.126 314.845 161.918 327.49 172.935 338.034C183.951 348.578 196.967 356.808 211.217 362.236C225.466 367.665 240.66 370.182 255.901 369.642C256.015 369.638 256.13 369.632 256.244 369.626C268.006 368.983 279.875 369.977 289.806 373.168C299.631 376.326 306.524 381.256 310.583 387.924C310.595 387.943 310.606 387.962 310.618 387.981L340.064 435.941C314.605 447.838 286.2 454.483 256.242 454.483C146.756 454.483 58 365.727 58 256.241C58.0002 146.756 146.756 58 256.242 58Z" fill="white"/>
<path d="M620.476 391V120.455H685.866V229.043H792.473V120.455H857.732V391H792.473V282.28H685.866V391H620.476Z" fill="black"/>
<path d="M993.467 394.831C972.154 394.831 953.836 390.472 938.512 381.753C923.276 372.946 911.519 360.705 903.241 345.028C895.05 329.264 890.955 310.99 890.955 290.206C890.955 269.334 895.05 251.06 903.241 235.384C911.519 219.619 923.276 207.378 938.512 198.659C953.836 189.852 972.154 185.449 993.467 185.449C1014.78 185.449 1033.05 189.852 1048.29 198.659C1063.61 207.378 1075.37 219.619 1083.56 235.384C1091.84 251.06 1095.98 269.334 1095.98 290.206C1095.98 310.99 1091.84 329.264 1083.56 345.028C1075.37 360.705 1063.61 372.946 1048.29 381.753C1033.05 390.472 1014.78 394.831 993.467 394.831ZM993.863 346.085C1001.61 346.085 1008.17 343.707 1013.55 338.952C1018.92 334.196 1023.01 327.591 1025.83 319.136C1028.74 310.682 1030.19 300.906 1030.19 289.81C1030.19 278.537 1028.74 268.673 1025.83 260.219C1023.01 251.764 1018.92 245.159 1013.55 240.403C1008.17 235.648 1001.61 233.27 993.863 233.27C985.849 233.27 979.067 235.648 973.519 240.403C968.059 245.159 963.876 251.764 960.969 260.219C958.151 268.673 956.742 278.537 956.742 289.81C956.742 300.906 958.151 310.682 960.969 319.136C963.876 327.591 968.059 334.196 973.519 338.952C979.067 343.707 985.849 346.085 993.863 346.085Z" fill="black"/>
<path d="M1223.79 394.831C1202.47 394.831 1184.16 390.472 1168.83 381.753C1153.6 372.946 1141.84 360.705 1133.56 345.028C1125.37 329.264 1121.28 310.99 1121.28 290.206C1121.28 269.334 1125.37 251.06 1133.56 235.384C1141.84 219.619 1153.6 207.378 1168.83 198.659C1184.16 189.852 1202.47 185.449 1223.79 185.449C1245.1 185.449 1263.37 189.852 1278.61 198.659C1293.93 207.378 1305.69 219.619 1313.88 235.384C1322.16 251.06 1326.3 269.334 1326.3 290.206C1326.3 310.99 1322.16 329.264 1313.88 345.028C1305.69 360.705 1293.93 372.946 1278.61 381.753C1263.37 390.472 1245.1 394.831 1223.79 394.831ZM1224.18 346.085C1231.93 346.085 1238.49 343.707 1243.87 338.952C1249.24 334.196 1253.33 327.591 1256.15 319.136C1259.06 310.682 1260.51 300.906 1260.51 289.81C1260.51 278.537 1259.06 268.673 1256.15 260.219C1253.33 251.764 1249.24 245.159 1243.87 240.403C1238.49 235.648 1231.93 233.27 1224.18 233.27C1216.17 233.27 1209.39 235.648 1203.84 240.403C1198.38 245.159 1194.2 251.764 1191.29 260.219C1188.47 268.673 1187.06 278.537 1187.06 289.81C1187.06 300.906 1188.47 310.682 1191.29 319.136C1194.2 327.591 1198.38 334.196 1203.84 338.952C1209.39 343.707 1216.17 346.085 1224.18 346.085Z" fill="black"/>
<path d="M1417.65 337.763L1417.91 260.747H1426.89L1483.96 188.091H1557.15L1472.34 292.187H1455.3L1417.65 337.763ZM1359.39 391V120.455H1423.99V391H1359.39ZM1485.42 391L1432.31 306.719L1474.85 260.879L1560.05 391H1485.42Z" fill="black"/>
<path d="M1580.26 391V188.091H1643.01V225.08H1645.13C1648.83 211.693 1654.86 201.741 1663.23 195.224C1671.59 188.619 1681.32 185.317 1692.42 185.317C1695.41 185.317 1698.5 185.537 1701.67 185.977C1704.84 186.33 1707.79 186.902 1710.52 187.695V243.838C1707.44 242.781 1703.38 241.945 1698.36 241.328C1693.43 240.712 1689.03 240.403 1685.15 240.403C1677.49 240.403 1670.58 242.121 1664.41 245.555C1658.34 248.902 1653.54 253.614 1650.01 259.69C1646.58 265.679 1644.86 272.724 1644.86 280.827V391H1580.26Z" fill="black"/>
<path d="M1910.42 391H1835.39V120.455H1916.23C1941.6 120.455 1963.31 125.827 1981.36 136.571C1999.41 147.315 2013.24 162.727 2022.84 182.807C2032.53 202.798 2037.33 226.797 2037.24 254.803C2037.15 283.425 2032.13 307.908 2022.18 328.251C2012.23 348.507 1997.83 364.051 1978.98 374.884C1960.14 385.628 1937.28 391 1910.42 391ZM1851.9 375.676H1909.76C1933.89 375.676 1954.24 370.876 1970.79 361.277C1987.35 351.589 1999.85 337.719 2008.31 319.665C2016.85 301.611 2021.08 279.99 2020.99 254.803C2020.99 229.967 2016.9 208.699 2008.71 190.997C2000.52 173.207 1988.58 159.557 1972.91 150.045C1957.32 140.534 1938.21 135.778 1915.57 135.778H1851.9V375.676Z" fill="black"/>
<path d="M2171.42 395.227C2154.69 395.227 2139.81 390.736 2126.77 381.753C2113.74 372.682 2103.48 360.22 2095.99 344.368C2088.51 328.516 2084.76 310.462 2084.76 290.206C2084.76 269.862 2088.51 251.808 2095.99 236.044C2103.48 220.192 2113.74 207.73 2126.77 198.659C2139.81 189.588 2154.69 185.053 2171.42 185.053C2188.16 185.053 2203.04 189.588 2216.07 198.659C2229.11 207.73 2239.37 220.192 2246.85 236.044C2254.34 251.896 2258.08 269.95 2258.08 290.206C2258.08 310.462 2254.34 328.516 2246.85 344.368C2239.37 360.22 2229.11 372.682 2216.07 381.753C2203.04 390.736 2188.16 395.227 2171.42 395.227ZM2171.42 380.3C2185.6 380.3 2197.98 376.293 2208.54 368.278C2219.2 360.264 2227.43 349.432 2233.25 335.781C2239.15 322.131 2242.1 306.939 2242.1 290.206C2242.1 273.473 2239.15 258.325 2233.25 244.763C2227.35 231.112 2219.11 220.28 2208.54 212.266C2197.98 204.163 2185.6 200.112 2171.42 200.112C2157.24 200.112 2144.87 204.163 2134.3 212.266C2123.73 220.28 2115.5 231.112 2109.6 244.763C2103.7 258.325 2100.75 273.473 2100.75 290.206C2100.75 306.939 2103.65 322.131 2109.47 335.781C2115.37 349.432 2123.6 360.264 2134.17 368.278C2144.83 376.293 2157.24 380.3 2171.42 380.3Z" fill="black"/>
<path d="M2389.69 395.227C2372.43 395.227 2357.24 390.692 2344.11 381.621C2330.99 372.462 2320.73 359.956 2313.33 344.104C2306.02 328.251 2302.37 310.285 2302.37 290.206C2302.37 270.126 2306.07 252.16 2313.47 236.308C2320.86 220.456 2331.12 207.95 2344.25 198.791C2357.37 189.632 2372.47 185.053 2389.56 185.053C2402.41 185.053 2414.13 187.695 2424.7 192.979C2435.35 198.263 2444.16 205.616 2451.12 215.04C2458.16 224.463 2462.65 235.384 2464.59 247.801H2448.21C2445.57 234.062 2438.96 222.702 2428.39 213.719C2417.91 204.648 2405.01 200.112 2389.69 200.112C2375.95 200.112 2363.71 203.987 2352.96 211.737C2342.22 219.399 2333.77 230.011 2327.6 243.574C2321.44 257.048 2318.35 272.504 2318.35 289.942C2318.35 307.115 2321.35 322.527 2327.34 336.178C2333.32 349.74 2341.69 360.484 2352.44 368.411C2363.18 376.337 2375.6 380.3 2389.69 380.3C2399.64 380.3 2408.71 378.318 2416.9 374.355C2425.18 370.392 2432.09 364.756 2437.64 357.446C2443.19 350.136 2446.84 341.594 2448.61 331.818H2464.99C2463.05 344.324 2458.65 355.332 2451.78 364.844C2444.91 374.355 2436.14 381.797 2425.49 387.169C2414.83 392.541 2402.9 395.227 2389.69 395.227Z" fill="black"/>
<path d="M2648.87 231.817L2633.95 235.78C2631.57 228.382 2628.18 221.997 2623.77 216.625C2619.37 211.253 2613.82 207.114 2607.13 204.207C2600.52 201.213 2592.6 199.716 2583.35 199.716C2568.47 199.716 2556.27 203.415 2546.76 210.812C2537.33 218.21 2532.62 227.854 2532.62 239.743C2532.62 249.43 2535.84 257.445 2542.27 263.786C2548.7 270.038 2558.52 274.794 2571.73 278.053L2602.9 285.847C2618.93 289.81 2631 296.239 2639.1 305.134C2647.2 313.94 2651.25 324.905 2651.25 338.027C2651.25 349.212 2648.21 359.119 2642.14 367.75C2636.06 376.381 2627.65 383.118 2616.9 387.962C2606.25 392.805 2593.83 395.227 2579.65 395.227C2560.72 395.227 2545.17 390.824 2533.02 382.017C2520.87 373.122 2513.07 360.396 2509.64 343.839L2525.09 339.876C2528 353.087 2534.03 363.17 2543.19 370.128C2552.44 376.997 2564.55 380.432 2579.52 380.432C2596.08 380.432 2609.42 376.513 2619.55 368.675C2629.76 360.837 2634.87 350.797 2634.87 338.555C2634.87 329.22 2631.88 321.338 2625.89 314.909C2619.9 308.48 2610.83 303.768 2598.67 300.774L2566.31 292.848C2549.75 288.797 2537.33 282.324 2529.06 273.429C2520.78 264.446 2516.64 253.393 2516.64 240.271C2516.64 229.351 2519.5 219.751 2525.23 211.473C2530.95 203.195 2538.83 196.722 2548.87 192.054C2558.91 187.386 2570.4 185.053 2583.35 185.053C2600.52 185.053 2614.53 189.104 2625.36 197.206C2636.19 205.308 2644.03 216.845 2648.87 231.817Z" fill="black"/>
</svg>
